<svg xmlns="http://www.w3.org/2000/svg" viewBox="0 0 60 60"><defs><style>.b{fill:#f9f9f9}</style></defs><path d="M60 30A30 30 0 1 1 30 0a30 30 0 0 1 30 30" style="fill:#e0e0e0"/><path d="M40.35 27.09a9.82 9.82 0 1 1-9.81-9.83 9.82 9.82 0 0 1 9.81 9.83" class="b"/><path d="M29.17 40.85a9.2 9.2 0 0 0 2.71 0 12 12 0 0 1-1.34.07 12 12 0 0 1-1.37-.07" style="fill:none"/><path d="M39.25 37.83a13.77 13.77 0 0 1-7.37 3 9.2 9.2 0 0 1-2.71 0 13.66 13.66 0 0 1-7.35-3 21 21 0 0 0-11.76 14.54 29.9 29.9 0 0 0 40.76-.8 21 21 0 0 0-11.57-13.74" class="b"/></svg>